<svg xmlns="http://www.w3.org/2000/svg" width="263.63" height="35" viewBox="0 0 263.63 35"><rect class="svg__rect" x="0" y="0" width="207.28" height="35" fill="#5D9741"/><rect class="svg__rect" x="205.28" y="0" width="58.349999999999994" height="35" fill="#C1D72F"/><path class="svg__text" d="M13.95 18.19L13.95 18.19L13.95 17.39Q13.95 16.19 14.38 15.27Q14.80 14.35 15.60 13.85Q16.40 13.35 17.45 13.35L17.45 13.35Q18.86 13.35 19.73 14.12Q20.59 14.89 20.73 16.29L20.73 16.29L19.25 16.29Q19.14 15.37 18.71 14.96Q18.28 14.55 17.45 14.55L17.45 14.55Q16.48 14.55 15.97 15.26Q15.45 15.96 15.44 17.33L15.44 17.33L15.44 18.09Q15.44 19.47 15.93 20.20Q16.43 20.92 17.38 20.92L17.38 20.92Q18.25 20.92 18.69 20.53Q19.13 20.14 19.25 19.22L19.25 19.22L20.73 19.22Q20.60 20.59 19.72 21.35Q18.84 22.12 17.38 22.12L17.38 22.12Q16.36 22.12 15.59 21.63Q14.81 21.15 14.39 20.26Q13.97 19.37 13.95 18.19ZM30.39 22L25.04 22L25.04 13.47L26.52 13.47L26.52 20.82L30.39 20.82L30.39 22ZM40.10 22L34.52 22L34.52 13.47L40.06 13.47L40.06 14.66L36.00 14.66L36.00 17.02L39.51 17.02L39.51 18.19L36.00 18.19L36.00 20.82L40.10 20.82L40.10 22ZM45.07 22L43.53 22L46.75 13.47L48.08 13.47L51.31 22L49.77 22L49.07 20.01L45.76 20.01L45.07 22ZM47.42 15.28L46.18 18.82L48.65 18.82L47.42 15.28ZM56.75 22L55.27 22L55.27 13.47L56.75 13.47L60.56 19.54L60.56 13.47L62.04 13.47L62.04 22L60.55 22L56.75 15.95L56.75 22ZM72.62 19.16L72.62 19.16L72.62 13.47L74.09 13.47L74.09 19.18Q74.09 20.03 74.53 20.48Q74.96 20.93 75.81 20.93L75.81 20.93Q77.52 20.93 77.52 19.13L77.52 19.13L77.52 13.47L78.99 13.47L78.99 19.17Q78.99 20.53 78.12 21.32Q77.25 22.12 75.81 22.12L75.81 22.12Q74.34 22.12 73.48 21.33Q72.62 20.55 72.62 19.16ZM85.05 22L83.56 22L83.56 13.47L86.83 13.47Q88.26 13.47 89.10 14.21Q89.94 14.96 89.94 16.18L89.94 16.18Q89.94 17.44 89.11 18.13Q88.29 18.83 86.81 18.83L86.81 18.83L85.05 18.83L85.05 22ZM85.05 14.66L85.05 17.64L86.83 17.64Q87.62 17.64 88.03 17.27Q88.45 16.90 88.45 16.19L88.45 16.19Q88.45 15.50 88.03 15.09Q87.61 14.68 86.87 14.66L86.87 14.66L85.05 14.66ZM101.76 22L100.29 22L100.29 13.47L101.76 13.47L101.76 22ZM108.06 22L106.57 22L106.57 13.47L108.06 13.47L111.87 19.54L111.87 13.47L113.34 13.47L113.34 22L111.86 22L108.06 15.95L108.06 22ZM125.54 22L124.06 22L124.06 13.47L127.32 13.47Q128.75 13.47 129.59 14.21Q130.43 14.96 130.43 16.18L130.43 16.18Q130.43 17.44 129.61 18.13Q128.79 18.83 127.30 18.83L127.30 18.83L125.54 18.83L125.54 22ZM125.54 14.66L125.54 17.64L127.32 17.64Q128.11 17.64 128.53 17.27Q128.94 16.90 128.94 16.19L128.94 16.19Q128.94 15.50 128.52 15.09Q128.10 14.68 127.36 14.66L127.36 14.66L125.54 14.66ZM136.20 22L134.72 22L134.72 13.47L137.72 13.47Q139.19 13.47 139.99 14.13Q140.80 14.79 140.80 16.05L140.80 16.05Q140.80 16.90 140.38 17.48Q139.97 18.06 139.23 18.37L139.23 18.37L141.15 21.92L141.15 22L139.56 22L137.85 18.71L136.20 18.71L136.20 22ZM136.20 14.66L136.20 17.52L137.72 17.52Q138.47 17.52 138.89 17.15Q139.31 16.77 139.31 16.11L139.31 16.11Q139.31 15.43 138.93 15.05Q138.54 14.68 137.76 14.66L137.76 14.66L136.20 14.66ZM144.92 18.00L144.92 18.00L144.92 17.52Q144.92 16.28 145.36 15.32Q145.81 14.37 146.61 13.86Q147.42 13.35 148.46 13.35Q149.50 13.35 150.31 13.85Q151.12 14.35 151.56 15.29Q151.99 16.23 152.00 17.48L152.00 17.48L152.00 17.96Q152.00 19.21 151.57 20.16Q151.13 21.10 150.33 21.61Q149.52 22.12 148.47 22.12L148.47 22.12Q147.44 22.12 146.62 21.61Q145.81 21.10 145.37 20.17Q144.93 19.23 144.92 18.00ZM146.40 17.46L146.40 17.96Q146.40 19.36 146.95 20.13Q147.50 20.90 148.47 20.90L148.47 20.90Q149.46 20.90 149.99 20.15Q150.52 19.40 150.52 17.96L150.52 17.96L150.52 17.51Q150.52 16.09 149.98 15.34Q149.45 14.58 148.46 14.58L148.46 14.58Q147.50 14.58 146.96 15.33Q146.42 16.09 146.40 17.46L146.40 17.46ZM156.20 18.19L156.20 18.19L156.20 17.39Q156.20 16.19 156.62 15.27Q157.05 14.35 157.85 13.85Q158.65 13.35 159.70 13.35L159.70 13.35Q161.11 13.35 161.97 14.12Q162.83 14.89 162.97 16.29L162.97 16.29L161.50 16.29Q161.39 15.37 160.96 14.96Q160.53 14.55 159.70 14.55L159.70 14.55Q158.73 14.55 158.21 15.26Q157.70 15.96 157.68 17.33L157.68 17.33L157.68 18.09Q157.68 19.47 158.18 20.20Q158.67 20.92 159.63 20.92L159.63 20.92Q160.50 20.92 160.94 20.53Q161.38 20.14 161.50 19.22L161.50 19.22L162.97 19.22Q162.85 20.59 161.97 21.35Q161.09 22.12 159.63 22.12L159.63 22.12Q158.61 22.12 157.83 21.63Q157.06 21.15 156.64 20.26Q156.21 19.37 156.20 18.19ZM172.87 22L167.29 22L167.29 13.47L172.82 13.47L172.82 14.66L168.77 14.66L168.77 17.02L172.27 17.02L172.27 18.19L168.77 18.19L168.77 20.82L172.87 20.82L172.87 22ZM176.63 19.42L176.63 19.42L178.11 19.42Q178.11 20.15 178.59 20.55Q179.07 20.95 179.97 20.95L179.97 20.95Q180.74 20.95 181.13 20.63Q181.52 20.32 181.52 19.80L181.52 19.80Q181.52 19.24 181.12 18.94Q180.73 18.63 179.70 18.32Q178.67 18.01 178.06 17.63L178.06 17.63Q176.89 16.90 176.89 15.72L176.89 15.72Q176.89 14.69 177.73 14.02Q178.57 13.35 179.91 13.35L179.91 13.35Q180.81 13.35 181.50 13.68Q182.20 14.01 182.60 14.61Q183.00 15.22 183.00 15.96L183.00 15.96L181.52 15.96Q181.52 15.29 181.10 14.91Q180.68 14.54 179.90 14.54L179.90 14.54Q179.18 14.54 178.77 14.85Q178.37 15.16 178.37 15.71L178.37 15.71Q178.37 16.18 178.81 16.50Q179.24 16.81 180.24 17.10Q181.23 17.40 181.84 17.78Q182.44 18.16 182.72 18.65Q183.00 19.13 183.00 19.79L183.00 19.79Q183.00 20.86 182.18 21.49Q181.37 22.12 179.97 22.12L179.97 22.12Q179.04 22.12 178.27 21.77Q177.49 21.43 177.06 20.83Q176.63 20.22 176.63 19.42ZM186.86 19.42L186.86 19.42L188.34 19.42Q188.34 20.15 188.82 20.55Q189.30 20.95 190.20 20.95L190.20 20.95Q190.97 20.95 191.36 20.63Q191.75 20.32 191.75 19.80L191.75 19.80Q191.75 19.24 191.35 18.94Q190.96 18.63 189.93 18.32Q188.90 18.01 188.29 17.63L188.29 17.63Q187.12 16.90 187.12 15.72L187.12 15.72Q187.12 14.69 187.96 14.02Q188.80 13.35 190.14 13.35L190.14 13.35Q191.04 13.35 191.73 13.68Q192.43 14.01 192.83 14.61Q193.23 15.22 193.23 15.96L193.23 15.96L191.75 15.96Q191.75 15.29 191.33 14.91Q190.91 14.54 190.13 14.54L190.13 14.54Q189.41 14.54 189.01 14.85Q188.60 15.16 188.60 15.71L188.60 15.71Q188.60 16.18 189.04 16.50Q189.47 16.81 190.47 17.10Q191.46 17.40 192.07 17.78Q192.67 18.16 192.95 18.65Q193.23 19.13 193.23 19.79L193.23 19.79Q193.23 20.86 192.42 21.49Q191.60 22.12 190.20 22.12L190.20 22.12Q189.27 22.12 188.50 21.77Q187.72 21.43 187.29 20.83Q186.86 20.22 186.86 19.42Z" fill="#FFFFFF"/><path class="svg__text" d="M218.82 16.30L218.82 16.30Q218.82 15.45 219.26 14.80Q219.70 14.14 220.45 13.79Q221.20 13.43 222.11 13.43L222.11 13.43Q223.92 13.43 224.97 14.50Q226.01 15.57 226.01 17.57L226.01 17.57Q226.01 19.01 225.45 20.05Q224.89 21.09 223.88 21.63Q222.87 22.17 221.54 22.17L221.54 22.17Q220.83 22.17 220.18 22.01Q219.53 21.84 219.08 21.55L219.08 21.55L219.94 19.85Q220.55 20.28 221.48 20.28L221.48 20.28Q222.39 20.28 222.94 19.79Q223.50 19.29 223.60 18.34L223.60 18.34Q222.88 18.95 221.71 18.95L221.71 18.95Q220.92 18.95 220.26 18.62Q219.60 18.29 219.21 17.68Q218.82 17.08 218.82 16.30ZM221.13 16.19L221.13 16.19Q221.13 16.67 221.45 16.96Q221.76 17.25 222.28 17.25L222.28 17.25Q222.80 17.25 223.12 16.96Q223.44 16.66 223.44 16.18L223.44 16.18Q223.44 15.71 223.12 15.42Q222.81 15.12 222.27 15.12L222.27 15.12Q221.76 15.12 221.45 15.41Q221.13 15.70 221.13 16.19ZM230.00 21.34L230.00 21.34L230.85 19.55Q231.36 19.88 231.96 20.07Q232.57 20.25 233.18 20.25L233.18 20.25Q233.79 20.25 234.15 20.01Q234.52 19.78 234.52 19.36L234.52 19.36Q234.52 18.94 234.16 18.72Q233.81 18.51 232.89 18.51L232.89 18.51L230.61 18.51L231.03 13.60L236.38 13.60L236.38 15.44L233.00 15.44L232.89 16.66L233.45 16.66Q235.22 16.66 236.06 17.38Q236.91 18.10 236.91 19.30L236.91 19.30Q236.91 20.08 236.51 20.73Q236.11 21.39 235.29 21.78Q234.46 22.17 233.25 22.17L233.25 22.17Q232.36 22.17 231.49 21.95Q230.62 21.74 230.00 21.34ZM240.94 15.82L240.94 15.82Q240.94 15.11 241.21 14.58Q241.49 14.05 241.97 13.77Q242.46 13.49 243.09 13.49L243.09 13.49Q244.05 13.49 244.65 14.12Q245.24 14.75 245.24 15.82L245.24 15.82Q245.24 16.90 244.64 17.52Q244.04 18.15 243.09 18.15L243.09 18.15Q242.14 18.15 241.54 17.53Q240.94 16.90 240.94 15.82ZM244.04 22L242.32 22L248.06 13.60L249.78 13.60L244.04 22ZM242.38 15.82L242.38 15.82Q242.38 16.42 242.57 16.71Q242.77 17.01 243.09 17.01L243.09 17.01Q243.41 17.01 243.60 16.72Q243.79 16.43 243.79 15.82L243.79 15.82Q243.79 15.21 243.60 14.92Q243.41 14.63 243.09 14.63L243.09 14.63Q242.78 14.63 242.58 14.93Q242.38 15.22 242.38 15.82ZM246.87 19.78L246.87 19.78Q246.87 18.71 247.47 18.08Q248.07 17.45 249.01 17.45L249.01 17.45Q249.97 17.45 250.57 18.08Q251.17 18.71 251.17 19.78L251.17 19.78Q251.17 20.86 250.57 21.48Q249.97 22.11 249.01 22.11L249.01 22.11Q248.06 22.11 247.46 21.48Q246.87 20.86 246.87 19.78ZM248.31 19.78L248.31 19.78Q248.31 20.39 248.50 20.68Q248.69 20.97 249.01 20.97L249.01 20.97Q249.34 20.97 249.53 20.68Q249.72 20.39 249.72 19.78L249.72 19.78Q249.72 19.17 249.53 18.88Q249.34 18.59 249.01 18.59L249.01 18.59Q248.69 18.59 248.50 18.88Q248.31 19.17 248.31 19.78Z" fill="#FFFFFF" x="218.28"/></svg>